<svg width="133" height="133" viewBox="0 0 133 133" fill="none" xmlns="http://www.w3.org/2000/svg">
<mask id="path-1-inside-1_1473_26936" fill="white">
    <defs>
        <linearGradient id="paint0_linear_1473_26936" x1="23.7554" y1="20.2051" x2="136.815" y2="70.5331" gradientUnits="userSpaceOnUse">
            <stop stop-color="#5B2E92"/>
            <stop offset="0.504944" stop-color="#29409C"/>
            <stop offset="1" stop-color="#0F91D2"/>
        </linearGradient>
    </defs>
<path d="M64.7618 0H67.9725C77.7371 0.244178 87.4574 2.58985 96.1933 6.98246C109.363 13.5467 120.24 24.6075 126.536 37.9126C130.648 46.4199 132.786 55.8337 132.999 65.2684V67.9829C132.729 77.7838 130.376 87.5406 125.944 96.2998C121.842 104.467 116.026 111.758 109.008 117.611C107.639 116.463 106.103 115.533 104.49 114.774C98.7182 111.891 92.9489 109.002 87.1769 106.119C85.8599 105.42 84.4624 104.867 83.2259 104.03C81.0309 102.487 79.7139 99.8274 79.7399 97.1545C79.7476 94.7257 79.7554 92.2995 79.7373 89.8733C79.771 89.52 79.6697 89.1018 79.9347 88.816C83.7584 84.2026 86.5327 78.7813 88.403 73.1055C90.8318 72.3158 92.8528 70.1208 93.0476 67.5205C93.1697 65.7074 93.0762 63.889 93.1047 62.0759C93.071 60.3458 93.1879 58.608 93.0138 56.8832C92.8502 55.3636 91.967 54.0414 90.9201 52.9763C90.9149 47.8772 90.9149 42.778 90.9201 37.6788C90.7227 33.3278 88.8939 29.0027 85.6573 26.0414C82.1609 22.7683 77.4202 21.2072 72.7574 20.5603C70.3442 20.1759 67.8946 20.1993 65.458 20.2071C61.1199 20.1993 56.7273 20.885 52.7166 22.5865C49.2799 24.0542 46.2121 26.5193 44.3548 29.7924C43.0144 32.1069 42.2688 34.7461 42.0844 37.4061C42.074 42.5962 42.087 47.7888 42.0792 52.9815C40.8869 54.1609 39.9673 55.7117 39.9336 57.4287C39.8478 59.9354 39.9258 62.4447 39.8946 64.9515C39.879 66.762 39.8089 68.7232 40.9051 70.274C41.3908 71.217 42.3754 71.7417 42.9936 72.5522C44.4249 78.4878 47.2355 84.039 50.8878 88.9121C51.0619 91.6397 50.9242 94.3932 50.9528 97.1311C51.0359 99.2715 50.1163 101.378 48.6383 102.903C47.6616 103.888 46.4095 104.521 45.2042 105.179C39.1387 108.485 33.0758 111.795 27.0103 115.102C25.8414 115.735 24.7607 116.517 23.7554 117.385C17.012 111.686 11.3647 104.68 7.33055 96.822C2.73012 87.938 0.249374 77.9942 0 67.9985V65.0138C0.290936 52.7296 3.98738 40.5206 10.7542 30.2496C16.2275 21.789 23.7035 14.6559 32.3225 9.45023C42.0792 3.55877 53.3764 0.322108 64.7618 0Z"/>
</mask>
<path d="M64.7618 0H67.9725C77.7371 0.244178 87.4574 2.58985 96.1933 6.98246C109.363 13.5467 120.24 24.6075 126.536 37.9126C130.648 46.4199 132.786 55.8337 132.999 65.2684V67.9829C132.729 77.7838 130.376 87.5406 125.944 96.2998C121.842 104.467 116.026 111.758 109.008 117.611C107.639 116.463 106.103 115.533 104.49 114.774C98.7182 111.891 92.9489 109.002 87.1769 106.119C85.8599 105.42 84.4624 104.867 83.2259 104.03C81.0309 102.487 79.7139 99.8274 79.7399 97.1545C79.7476 94.7257 79.7554 92.2995 79.7373 89.8733C79.771 89.52 79.6697 89.1018 79.9347 88.816C83.7584 84.2026 86.5327 78.7813 88.403 73.1055C90.8318 72.3158 92.8528 70.1208 93.0476 67.5205C93.1697 65.7074 93.0762 63.889 93.1047 62.0759C93.071 60.3458 93.1879 58.608 93.0138 56.8832C92.8502 55.3636 91.967 54.0414 90.9201 52.9763C90.9149 47.8772 90.9149 42.778 90.9201 37.6788C90.7227 33.3278 88.8939 29.0027 85.6573 26.0414C82.1609 22.7683 77.4202 21.2072 72.7574 20.5603C70.3442 20.1759 67.8946 20.1993 65.458 20.2071C61.1199 20.1993 56.7273 20.885 52.7166 22.5865C49.2799 24.0542 46.2121 26.5193 44.3548 29.7924C43.0144 32.1069 42.2688 34.7461 42.0844 37.4061C42.074 42.5962 42.087 47.7888 42.0792 52.9815C40.8869 54.1609 39.9673 55.7117 39.9336 57.4287C39.8478 59.9354 39.9258 62.4447 39.8946 64.9515C39.879 66.762 39.8089 68.7232 40.9051 70.274C41.3908 71.217 42.3754 71.7417 42.9936 72.5522C44.4249 78.4878 47.2355 84.039 50.8878 88.9121C51.0619 91.6397 50.9242 94.3932 50.9528 97.1311C51.0359 99.2715 50.1163 101.378 48.6383 102.903C47.6616 103.888 46.4095 104.521 45.2042 105.179C39.1387 108.485 33.0758 111.795 27.0103 115.102C25.8414 115.735 24.7607 116.517 23.7554 117.385C17.012 111.686 11.3647 104.68 7.33055 96.822C2.73012 87.938 0.249374 77.9942 0 67.9985V65.0138C0.290936 52.7296 3.98738 40.5206 10.7542 30.2496C16.2275 21.789 23.7035 14.6559 32.3225 9.45023C42.0792 3.55877 53.3764 0.322108 64.7618 0Z" fill="#EEF0F2" stroke="white" stroke-width="2" mask="url(#path-1-inside-1_1473_26936)"/>
<mask id="path-2-inside-2_1473_26936" fill="white">
<path d="M52.7165 22.5878C56.7273 20.8863 61.1199 20.2005 65.4579 20.2083C67.8945 20.2005 70.3441 20.1772 72.7573 20.5616C77.4201 21.2084 82.1608 22.7696 85.6572 26.0426C88.8939 29.004 90.7226 33.329 90.92 37.6801C90.9148 42.7793 90.9148 47.8784 90.92 52.9776C91.9669 54.0426 92.8501 55.3648 93.0137 56.8845C93.1878 58.6093 93.0709 60.3471 93.1047 62.0772C93.0761 63.8903 93.1696 65.7087 93.0475 67.5218C92.8527 70.1221 90.8317 72.3171 88.4029 73.1067C86.5326 78.7826 83.7583 84.2039 79.9346 88.8173C79.6696 89.103 79.7709 89.5213 79.7372 89.8745C79.7554 92.3007 79.7476 94.7269 79.7398 97.1557C79.7138 99.8287 81.0308 102.489 83.2258 104.032C84.4623 104.868 85.8598 105.421 87.1768 106.12C92.9488 109.004 98.7182 111.892 104.49 114.776C106.103 115.534 107.638 116.464 109.007 117.612C101.163 124.174 91.7721 128.878 81.8127 131.216C76.9525 132.375 71.9598 132.93 66.9646 133.001H66.0554C50.7085 132.92 35.4474 127.34 23.7554 117.386C24.7607 116.519 25.8413 115.737 27.0102 115.103C33.0757 111.796 39.1386 108.487 45.2041 105.18C46.4094 104.523 47.6615 103.889 48.6382 102.904C50.1163 101.379 51.0358 99.2728 50.9527 97.1324C50.9241 94.3944 51.0618 91.6409 50.8878 88.9134C47.2355 84.0402 44.4248 78.4891 42.9935 72.5534C42.3753 71.743 41.3908 71.2183 40.905 70.2753C39.8088 68.7245 39.8789 66.7633 39.8945 64.9527C39.9257 62.446 39.8478 59.9367 39.9335 57.43C39.9673 55.7129 40.8868 54.1621 42.0791 52.9828C42.0869 47.7901 42.0739 42.5974 42.0843 37.4073C42.2688 34.7473 43.0143 32.1081 44.3547 29.7936C46.212 26.5206 49.2798 24.0554 52.7165 22.5878Z"/>
</mask>
<path d="M52.7165 22.5878C56.7273 20.8863 61.1199 20.2005 65.4579 20.2083C67.8945 20.2005 70.3441 20.1772 72.7573 20.5616C77.4201 21.2084 82.1608 22.7696 85.6572 26.0426C88.8939 29.004 90.7226 33.329 90.92 37.6801C90.9148 42.7793 90.9148 47.8784 90.92 52.9776C91.9669 54.0426 92.8501 55.3648 93.0137 56.8845C93.1878 58.6093 93.0709 60.3471 93.1047 62.0772C93.0761 63.8903 93.1696 65.7087 93.0475 67.5218C92.8527 70.1221 90.8317 72.3171 88.4029 73.1067C86.5326 78.7826 83.7583 84.2039 79.9346 88.8173C79.6696 89.103 79.7709 89.5213 79.7372 89.8745C79.7554 92.3007 79.7476 94.7269 79.7398 97.1557C79.7138 99.8287 81.0308 102.489 83.2258 104.032C84.4623 104.868 85.8598 105.421 87.1768 106.12C92.9488 109.004 98.7182 111.892 104.49 114.776C106.103 115.534 107.638 116.464 109.007 117.612C101.163 124.174 91.7721 128.878 81.8127 131.216C76.9525 132.375 71.9598 132.93 66.9646 133.001H66.0554C50.7085 132.92 35.4474 127.34 23.7554 117.386C24.7607 116.519 25.8413 115.737 27.0102 115.103C33.0757 111.796 39.1386 108.487 45.2041 105.18C46.4094 104.523 47.6615 103.889 48.6382 102.904C50.1163 101.379 51.0358 99.2728 50.9527 97.1324C50.9241 94.3944 51.0618 91.6409 50.8878 88.9134C47.2355 84.0402 44.4248 78.4891 42.9935 72.5534C42.3753 71.743 41.3908 71.2183 40.905 70.2753C39.8088 68.7245 39.8789 66.7633 39.8945 64.9527C39.9257 62.446 39.8478 59.9367 39.9335 57.43C39.9673 55.7129 40.8868 54.1621 42.0791 52.9828C42.0869 47.7901 42.0739 42.5974 42.0843 37.4073C42.2688 34.7473 43.0143 32.1081 44.3547 29.7936C46.212 26.5206 49.2798 24.0554 52.7165 22.5878Z" fill="url(#paint0_linear_1473_26936)" stroke="white" stroke-width="2" mask="url(#path-2-inside-2_1473_26936)"/>

</svg>
